# xmcd CD database file
#
# Track frame offsets:
#	150
#	36891
#	42123
#	60501
#	91921
#	106315
#	131393
#	142789
#	167391
#	195251
#	220745
#	235828
#	245320
#	260756
#	263847
#	272165
#
# Disc length: 3784 seconds
#
# Revision: 0
# Processed by: cddbd v1.5.1PL2 Copyright (c) Steve Scherf et al.
# Submitted via: CDex 1.51
#
DISCID=d00ec610
DTITLE=Μιχάλης Σιγανιδης - Sabbath Lift
DYEAR=2006
DGENRE=Jazz
TTITLE0=Και Η Σιωπή Χρειάζεται - Κυριάκος Γκουβέντας
TTITLE1=Πέτρα - Μιχάλης Σιγανίδης
TTITLE2=Οι Δίδυμοι - Gas and Γιάννης οικονόμου
TTITLE3=Φιλέρημος - Στέλιος Κάλφας and SoNaMa
TTITLE4=Τα Σπουργιτάκια - Μιχάλης Σιγανίδης and Αλκίνοος Ιωαννίδης
TTITLE5=Αταράξ Και Ταραξάκο - Αλκίνοος Ιωαννίδης and Ελένη Λαπιδάκη and Μιχάλης Σιγανίδης
TTITLE6=Τζίτζικας For Ever - Οργανικό
TTITLE7=Όλοι Στα Κάρβουνα - Charlotte Babbling and Alberta Kytona and Χορός
TTITLE8=Η Θεσσαλονίκη ’νευ Διδασκάλου - Νίκος Κουμαριάς and Χορός
TTITLE9=’λκαρ - Οργανικό
TTITLE10=Διαγωνισμός Ομορφιάς - Meena Serendib and Κώστας Rousilvo Θεοδώρου
TTITLE11=Δείμος Και Φόβος - Οργανικό
TTITLE12=Futuro Maravilloso - Στέλιος Κελίδης
TTITLE13=Myrgh Joy - Οργανικό
TTITLE14=Theo Dimos Mara - Οργανικό
TTITLE15=Sabbath Lift - Δήμος Δημητριάδης and Μιχάλης Σιγανίδης
EXTD=YEAR: 2006
EXTT0=
EXTT1=
EXTT2=
EXTT3=
EXTT4=
EXTT5=
EXTT6=
EXTT7=
EXTT8=
EXTT9=
EXTT10=
EXTT11=
EXTT12=
EXTT13=
EXTT14=
EXTT15=
PLAYORDER=
